<?xml version="1.0" encoding="UTF-8" standalone="no"?>
<!-- Generator: Adobe Illustrator 15.1.0, SVG Export Plug-In  -->

<svg
   xmlns:dc="http://purl.org/dc/elements/1.1/"
   xmlns:cc="http://creativecommons.org/ns#"
   xmlns:rdf="http://www.w3.org/1999/02/22-rdf-syntax-ns#"
   xmlns:svg="http://www.w3.org/2000/svg"
   xmlns="http://www.w3.org/2000/svg"
   xmlns:sodipodi="http://sodipodi.sourceforge.net/DTD/sodipodi-0.dtd"
   xmlns:inkscape="http://www.inkscape.org/namespaces/inkscape"
   version="1.1"
   x="0px"
   y="0px"
   width="715px"
   height="162px"
   viewBox="0 0 715 162"
   overflow="visible"
   enable-background="new 0 0 715 162"
   xml:space="preserve"
   id="svg40"
   sodipodi:docname="logo.svg"
   inkscape:version="0.92.3 (2405546, 2018-03-11)"><metadata
   id="metadata44"><rdf:RDF><cc:Work
       rdf:about=""><dc:format>image/svg+xml</dc:format><dc:type
         rdf:resource="http://purl.org/dc/dcmitype/StillImage" /></cc:Work></rdf:RDF></metadata><sodipodi:namedview
   pagecolor="#ffffff"
   bordercolor="#666666"
   borderopacity="1"
   objecttolerance="10"
   gridtolerance="10"
   guidetolerance="10"
   inkscape:pageopacity="0"
   inkscape:pageshadow="2"
   inkscape:window-width="1920"
   inkscape:window-height="1017"
   id="namedview42"
   showgrid="false"
   inkscape:zoom="1.1353267"
   inkscape:cx="512.4019"
   inkscape:cy="155.93061"
   inkscape:window-x="-8"
   inkscape:window-y="187"
   inkscape:window-maximized="1"
   inkscape:current-layer="svg40" />
<defs
   id="defs2">
</defs>


















<g
   transform="matrix(0.43139947,0,0,0.43139947,88.162228,-87.992914)"
   id="g18"
   style="fill:#ffffff;fill-opacity:1;stroke:none;stroke-opacity:1"><path
     style="fill:#ffffff;fill-opacity:1;stroke:none;stroke-opacity:1"
     inkscape:connector-curvature="0"
     d="m 174.927,453.59 c -3.562,0 -7.196,-0.582 -10.758,-1.891 -16.356,-5.961 -24.715,-23.988 -18.828,-40.345 l 67.75,-186.166 c 3.853,-10.54 13.012,-18.246 24.134,-20.208 11.05,-1.963 22.317,2.181 29.586,10.759 l 117.908,140.515 h 48.631 c 17.375,0 31.477,14.103 31.477,31.476 0,17.374 -14.102,31.477 -31.477,31.477 h -63.314 c -9.305,0 -18.102,-4.145 -24.135,-11.268 L 253.582,297.882 204.441,432.799 c -4.652,12.867 -16.72,20.791 -29.514,20.791 z"
     id="path2" /><path
     style="fill:#ffffff;fill-opacity:1;stroke:none;stroke-opacity:1"
     inkscape:connector-curvature="0"
     d="m 195.427,566.045 -17.374,-55.974 -14.975,43.18 -28.858,-35.401 2.689,58.445 -16.21,2.835 -3.199,-87.522 12.794,-2.253 27.769,35.328 13.884,-42.598 12.794,-2.254 26.896,83.451 z"
     id="path4" /><path
     style="fill:#ffffff;fill-opacity:1;stroke:none;stroke-opacity:1"
     inkscape:connector-curvature="0"
     d="m 266.375,536.822 c -4.506,3.562 -12.212,7.27 -17.955,8.287 -8.068,1.381 -17.301,-1.744 -21.008,-12.794 h 0.146 c -0.437,-1.235 -0.8,-2.544 -1.091,-3.925 -0.436,-2.108 -0.509,-4.289 -0.436,-6.397 h -0.073 c 0.073,-2.035 0.437,-3.926 1.019,-5.67 0,-0.072 0,-0.072 0,-0.146 0.072,-0.218 0.145,-0.363 0.217,-0.581 1.672,-4.144 4.943,-7.197 10.25,-8.142 8.215,-1.454 12.141,4.652 13.085,10.177 l -18.609,3.271 c -0.29,2.035 -0.218,4.216 0.218,6.324 0.291,1.381 0.654,2.762 1.164,3.998 l 33.511,-5.889 c 0.073,-3.053 0,-5.815 -0.509,-8.505 -2.835,-16.138 -16.138,-24.497 -31.549,-21.808 -18.827,3.271 -26.751,19.845 -23.771,36.782 2.98,17.083 16.574,29.731 38.673,25.806 8.65,-1.526 15.338,-4.942 19.555,-8.214 z"
     id="path6" /><g
     id="g12"
     style="fill:#ffffff;fill-opacity:1;stroke:none;stroke-opacity:1"><path
       style="fill:#ffffff;fill-opacity:1;stroke:none;stroke-opacity:1"
       inkscape:connector-curvature="0"
       d="m 289.418,549.107 13.885,-90.139 -14.757,2.617 -15.411,90.865 16.21,-2.835 v -0.072 c 0,-0.218 0,-0.362 0.073,-0.436 z"
       id="path8" /><polygon
       style="fill:#ffffff;fill-opacity:1;stroke:none;stroke-opacity:1"
       points="348.736,539.076 307.883,467.11 304.102,491.826 313.48,508.399 301.195,510.508 298.795,526.573 321.477,522.575 332.453,541.911 "
       id="polygon10" /></g><path
     style="fill:#ffffff;fill-opacity:1;stroke:none;stroke-opacity:1"
     inkscape:connector-curvature="0"
     d="m 377.23,484.848 -5.596,1.018 c -5.016,0.872 -8.941,4.361 -10.033,8.068 l 7.342,41.653 -15.191,2.617 -10.76,-61.062 14.176,-2.472 1.527,6.397 c 2.617,-3.853 7.996,-9.087 14.902,-10.322 l 3.998,-0.728 z"
     id="path14" /><path
     style="fill:#ffffff;fill-opacity:1;stroke:none;stroke-opacity:1"
     inkscape:connector-curvature="0"
     d="m 470.133,517.704 -5.742,-32.856 c -1.963,-11.268 -5.889,-16.211 -14.32,-14.757 -10.033,1.744 -11.123,7.778 -10.033,13.957 l 6.615,37.728 -15.047,2.616 -5.742,-32.856 c -2.326,-13.157 -6.615,-16.065 -15.121,-14.611 -4.869,0.872 -8.213,3.344 -10.322,6.979 l 7.852,44.561 -15.121,2.689 -10.758,-61.062 12.43,-2.181 1.672,4.579 c 3.055,-3.562 8.143,-7.342 14.611,-8.505 7.051,-1.235 14.902,0.363 20.355,6.033 1.381,-4.288 7.631,-10.903 18.607,-12.866 16.502,-2.908 26.461,7.851 29.441,24.934 l 5.742,32.857 z"
     id="path16" /></g></svg>